# xmcd
#
# Track frame offsets: 
#        150
#        31213
#        52869
#        73416
#        96498
#        207545
#        237111
#        254236
#
# Disc length: 4161 seconds
#
# Revision: 4
# Processed by: cddbd v1.5.2PL0 Copyright (c) Steve Scherf et al.
# Submitted via: ExactAudioCopy v1.3
#
DISCID=79103f08
DTITLE=Fleetwood Mac - Boston - Live At The Boston Tea Party Feb 1970 
DTITLE=CD 1 -
DYEAR=1970
DGENRE=Blues
TTITLE0=Black Magic Woman
TTITLE1=Jumping At Shadows
TTITLE2=Like It This Way
TTITLE3=Only You
TTITLE4=Rattlesnake Shake
TTITLE5=I Can't Hold Out
TTITLE6=Got To Move
TTITLE7=The Green Manalishi
EXTD=
EXTT0=
EXTT1=
EXTT2=
EXTT3=
EXTT4=
EXTT5=
EXTT6=
EXTT7=
PLAYORDER=
